<svg xmlns="http://www.w3.org/2000/svg" viewBox="0 0 800 520" font-family="'Noto Sans TC', 'Segoe UI', sans-serif">
  <defs>
    <filter id="s"><feDropShadow dx="1" dy="1" stdDeviation="2" flood-opacity="0.1"/></filter>
    <linearGradient id="g1" x1="0%" y1="0%" x2="100%" y2="0%"><stop offset="0%" stop-color="#667eea"/><stop offset="100%" stop-color="#764ba2"/></linearGradient>
    <linearGradient id="g2" x1="0%" y1="0%" x2="100%" y2="0%"><stop offset="0%" stop-color="#f093fb"/><stop offset="100%" stop-color="#f5576c"/></linearGradient>
    <linearGradient id="g3" x1="0%" y1="0%" x2="100%" y2="0%"><stop offset="0%" stop-color="#4facfe"/><stop offset="100%" stop-color="#00f2fe"/></linearGradient>
    <linearGradient id="g4" x1="0%" y1="0%" x2="100%" y2="0%"><stop offset="0%" stop-color="#43e97b"/><stop offset="100%" stop-color="#38f9d7"/></linearGradient>
    <linearGradient id="g5" x1="0%" y1="0%" x2="100%" y2="0%"><stop offset="0%" stop-color="#fa709a"/><stop offset="100%" stop-color="#fee140"/></linearGradient>
    <marker id="ar" markerWidth="8" markerHeight="6" refX="8" refY="3" orient="auto"><polygon points="0 0,8 3,0 6" fill="#bbb"/></marker>
  </defs>

  <rect width="800" height="520" rx="12" fill="#f8f9fc"/>

  <!-- Title -->
  <text x="400" y="30" text-anchor="middle" font-size="22" font-weight="bold" fill="#1a1a2e">自癒式開發流程</text>
  <text x="400" y="50" text-anchor="middle" font-size="13" fill="#888">需求即測試 &#xB7; 自動診斷 &#xB7; 自癒修復 &#xB7; 知識沉澱</text>

  <!-- ===== Row 1: 6 Phases ===== -->
  <!-- Telegram -->
  <g filter="url(#s)">
    <rect x="10" y="68" width="100" height="72" rx="12" fill="url(#g1)"/>
    <text x="60" y="96" text-anchor="middle" font-size="24" fill="white">&#x1F4F1;</text>
    <text x="60" y="118" text-anchor="middle" font-size="13" font-weight="bold" fill="white">Telegram</text>
    <text x="60" y="133" text-anchor="middle" font-size="10" fill="rgba(255,255,255,0.7)">下達指令</text>
  </g>
  <line x1="110" y1="104" x2="128" y2="104" stroke="#bbb" stroke-width="2" marker-end="url(#ar)"/>

  <!-- Phase 0 -->
  <g filter="url(#s)">
    <rect x="133" y="68" width="115" height="72" rx="12" fill="url(#g2)"/>
    <text x="190" y="92" text-anchor="middle" font-size="11" font-weight="bold" fill="white">PHASE 0</text>
    <text x="190" y="112" text-anchor="middle" font-size="14" font-weight="bold" fill="white">影響分析</text>
    <text x="190" y="130" text-anchor="middle" font-size="10" fill="rgba(255,255,255,0.7)">import / PubSub</text>
  </g>
  <line x1="248" y1="104" x2="266" y2="104" stroke="#bbb" stroke-width="2" marker-end="url(#ar)"/>

  <!-- Phase 1 -->
  <g filter="url(#s)">
    <rect x="271" y="68" width="115" height="72" rx="12" fill="url(#g3)"/>
    <text x="328" y="92" text-anchor="middle" font-size="11" font-weight="bold" fill="white">PHASE 1</text>
    <text x="328" y="112" text-anchor="middle" font-size="14" font-weight="bold" fill="white">測試情境</text>
    <text x="328" y="130" text-anchor="middle" font-size="10" fill="rgba(255,255,255,0.7)">BDD 生成</text>
  </g>
  <line x1="386" y1="104" x2="404" y2="104" stroke="#bbb" stroke-width="2" marker-end="url(#ar)"/>

  <!-- Phase 2 -->
  <g filter="url(#s)">
    <rect x="409" y="68" width="115" height="72" rx="12" fill="url(#g4)"/>
    <text x="466" y="92" text-anchor="middle" font-size="11" font-weight="bold" fill="#1a1a2e">PHASE 2</text>
    <text x="466" y="112" text-anchor="middle" font-size="14" font-weight="bold" fill="#1a1a2e">實作驗證</text>
    <text x="466" y="130" text-anchor="middle" font-size="10" fill="rgba(0,0,0,0.4)">Subagent</text>
  </g>
  <line x1="524" y1="104" x2="542" y2="104" stroke="#bbb" stroke-width="2" marker-end="url(#ar)"/>

  <!-- Phase 3 -->
  <g filter="url(#s)">
    <rect x="547" y="68" width="100" height="72" rx="12" fill="url(#g5)"/>
    <text x="597" y="92" text-anchor="middle" font-size="11" font-weight="bold" fill="white">PHASE 3</text>
    <text x="597" y="112" text-anchor="middle" font-size="14" font-weight="bold" fill="white">E2E</text>
    <text x="597" y="130" text-anchor="middle" font-size="10" fill="rgba(255,255,255,0.7)">Playwright</text>
  </g>
  <line x1="647" y1="104" x2="662" y2="104" stroke="#bbb" stroke-width="2" marker-end="url(#ar)"/>

  <!-- Phase 4: Self-Heal -->
  <g filter="url(#s)">
    <rect x="667" y="62" width="123" height="84" rx="14" fill="#1a1a2e" stroke="#f5576c" stroke-width="2"/>
    <text x="728" y="86" text-anchor="middle" font-size="11" font-weight="bold" fill="#f5576c">PHASE 4</text>
    <text x="728" y="108" text-anchor="middle" font-size="16" font-weight="bold" fill="white">自癒驗證</text>
    <text x="728" y="126" text-anchor="middle" font-size="10" fill="rgba(255,255,255,0.5)">Seq + Tempo</text>
    <text x="728" y="140" text-anchor="middle" font-size="10" fill="#f5576c">max 3 次修復</text>
  </g>

  <!-- ===== Row 2: Deploy Pipeline ===== -->
  <g filter="url(#s)">
    <rect x="10" y="168" width="780" height="80" rx="12" fill="white" stroke="#e0e6ed"/>
    <text x="35" y="196" font-size="15" font-weight="bold" fill="#1a1a2e">任務完成閉環</text>

    <rect x="30" y="210" width="90" height="30" rx="6" fill="#667eea" opacity="0.12"/>
    <text x="75" y="230" text-anchor="middle" font-size="12" fill="#667eea" font-weight="bold">版號 +1</text>

    <text x="130" y="230" font-size="14" fill="#ccc">&#x2192;</text>

    <rect x="142" y="210" width="100" height="30" rx="6" fill="#667eea" opacity="0.12"/>
    <text x="192" y="230" text-anchor="middle" font-size="12" fill="#667eea" font-weight="bold">CHANGELOG</text>

    <text x="252" y="230" font-size="14" fill="#ccc">&#x2192;</text>

    <rect x="264" y="210" width="80" height="30" rx="6" fill="#4facfe" opacity="0.12"/>
    <text x="304" y="230" text-anchor="middle" font-size="12" fill="#4facfe" font-weight="bold">git push</text>

    <text x="354" y="230" font-size="14" fill="#ccc">&#x2192;</text>

    <rect x="366" y="210" width="110" height="30" rx="6" fill="#4facfe" opacity="0.12"/>
    <text x="421" y="230" text-anchor="middle" font-size="12" fill="#4facfe" font-weight="bold">SSH 部署 VM</text>

    <text x="486" y="230" font-size="14" fill="#ccc">&#x2192;</text>

    <rect x="498" y="210" width="105" height="30" rx="6" fill="#43e97b" opacity="0.12"/>
    <text x="550" y="230" text-anchor="middle" font-size="12" fill="#2d8a56" font-weight="bold">Health Check</text>

    <text x="613" y="230" font-size="14" fill="#ccc">&#x2192;</text>

    <rect x="625" y="210" width="90" height="30" rx="6" fill="#f5576c" opacity="0.12"/>
    <text x="670" y="230" text-anchor="middle" font-size="12" fill="#f5576c" font-weight="bold">/self-heal</text>

    <text x="725" y="230" font-size="14" fill="#ccc">&#x2192;</text>

    <rect x="737" y="210" width="40" height="30" rx="6" fill="#43e97b"/>
    <text x="757" y="231" text-anchor="middle" font-size="16" fill="white">&#x2714;</text>
  </g>

  <!-- ===== Row 3: Self-Heal Steps ===== -->
  <g filter="url(#s)">
    <rect x="10" y="268" width="780" height="100" rx="12" fill="#1a1a2e"/>
    <text x="35" y="294" font-size="15" font-weight="bold" fill="#f5576c">/self-heal 自癒流程</text>

    <rect x="30" y="308" width="100" height="45" rx="8" fill="rgba(255,255,255,0.07)" stroke="rgba(255,255,255,0.12)"/>
    <text x="80" y="326" text-anchor="middle" font-size="10" fill="#4facfe" font-weight="bold">Step 1</text>
    <text x="80" y="343" text-anchor="middle" font-size="11" fill="white">健康檢查</text>

    <line x1="130" y1="330" x2="148" y2="330" stroke="rgba(255,255,255,0.25)" stroke-width="1.5" marker-end="url(#ar)"/>

    <rect x="153" y="308" width="100" height="45" rx="8" fill="rgba(255,255,255,0.07)" stroke="rgba(255,255,255,0.12)"/>
    <text x="203" y="326" text-anchor="middle" font-size="10" fill="#4facfe" font-weight="bold">Step 2</text>
    <text x="203" y="343" text-anchor="middle" font-size="11" fill="white">Seq 錯誤</text>

    <line x1="253" y1="330" x2="271" y2="330" stroke="rgba(255,255,255,0.25)" stroke-width="1.5" marker-end="url(#ar)"/>

    <rect x="276" y="308" width="100" height="45" rx="8" fill="rgba(255,255,255,0.07)" stroke="rgba(255,255,255,0.12)"/>
    <text x="326" y="326" text-anchor="middle" font-size="10" fill="#f093fb" font-weight="bold">Step 3</text>
    <text x="326" y="343" text-anchor="middle" font-size="11" fill="white">Tempo 追蹤</text>

    <line x1="376" y1="330" x2="394" y2="330" stroke="rgba(255,255,255,0.25)" stroke-width="1.5" marker-end="url(#ar)"/>

    <rect x="399" y="308" width="100" height="45" rx="8" fill="rgba(255,255,255,0.07)" stroke="rgba(255,255,255,0.12)"/>
    <text x="449" y="326" text-anchor="middle" font-size="10" fill="#ffa94d" font-weight="bold">Step 4</text>
    <text x="449" y="343" text-anchor="middle" font-size="11" fill="white">判斷根因</text>

    <line x1="499" y1="330" x2="517" y2="330" stroke="rgba(255,255,255,0.25)" stroke-width="1.5" marker-end="url(#ar)"/>

    <rect x="522" y="308" width="100" height="45" rx="8" fill="rgba(255,255,255,0.07)" stroke="rgba(255,255,255,0.12)"/>
    <text x="572" y="326" text-anchor="middle" font-size="10" fill="#ffa94d" font-weight="bold">Step 5</text>
    <text x="572" y="343" text-anchor="middle" font-size="11" fill="white">自動修復</text>

    <line x1="622" y1="330" x2="640" y2="330" stroke="rgba(255,255,255,0.25)" stroke-width="1.5" marker-end="url(#ar)"/>

    <rect x="645" y="308" width="60" height="45" rx="8" fill="rgba(255,255,255,0.07)" stroke="rgba(255,255,255,0.12)"/>
    <text x="675" y="326" text-anchor="middle" font-size="10" fill="#43e97b" font-weight="bold">Step 6</text>
    <text x="675" y="343" text-anchor="middle" font-size="11" fill="#43e97b">驗證</text>

    <line x1="705" y1="330" x2="723" y2="330" stroke="rgba(255,255,255,0.25)" stroke-width="1.5" marker-end="url(#ar)"/>

    <rect x="728" y="308" width="50" height="45" rx="8" fill="rgba(67,233,123,0.15)" stroke="#43e97b"/>
    <text x="753" y="335" text-anchor="middle" font-size="14" fill="#43e97b">&#x1F4CB;</text>
    <text x="753" y="349" text-anchor="middle" font-size="9" fill="#43e97b">報告</text>

    <!-- Loop -->
    <path d="M675,353 C675,370 449,370 449,353" stroke="#f5576c" stroke-width="1.5" fill="none" stroke-dasharray="4,3"/>
    <text x="562" y="367" text-anchor="middle" font-size="9" fill="#f5576c">失敗 &#x2192; 重試 (max 3)</text>
  </g>

  <!-- ===== Row 4: Knowledge ===== -->
  <g filter="url(#s)">
    <rect x="10" y="388" width="780" height="50" rx="12" fill="#fefcf3" stroke="#e8dbb5"/>
    <text x="35" y="412" font-size="14" font-weight="bold" fill="#8a7540">PHASE 5: 知識沉澱</text>
    <text x="245" y="412" font-size="12" fill="#a08c50">每個 bug &#x2192; 防護規則 &#x2192; CLAUDE.md &#x2192; AI 自動遵守</text>

    <rect x="520" y="398" width="75" height="24" rx="5" fill="#e8dbb5"/>
    <text x="557" y="415" text-anchor="middle" font-size="9" fill="#6b5b2e">狀態過濾</text>
    <rect x="600" y="398" width="75" height="24" rx="5" fill="#e8dbb5"/>
    <text x="637" y="415" text-anchor="middle" font-size="9" fill="#6b5b2e">三重守衛</text>
    <rect x="680" y="398" width="95" height="24" rx="5" fill="#e8dbb5"/>
    <text x="727" y="415" text-anchor="middle" font-size="9" fill="#6b5b2e">PubSub 掃描</text>
  </g>

  <!-- ===== Row 5: Telegram Sequence ===== -->
  <g filter="url(#s)">
    <rect x="10" y="455" width="780" height="55" rx="12" fill="url(#g1)" opacity="0.9"/>
    <text x="400" y="480" text-anchor="middle" font-size="15" font-weight="bold" fill="white">&#x1F4F1; Telegram &#x2194; Claude Code &#x2194; VM (192.168.50.194)</text>
    <text x="400" y="500" text-anchor="middle" font-size="12" fill="rgba(255,255,255,0.7)">任何裝置下達指令 &#xB7; 不需開 IDE &#xB7; 設計決策在 Telegram 確認 &#xB7; 程式碼撰寫/部署/驗證全自動</text>
  </g>
</svg>